<mxfile host="app.diagrams.net" agent="Mozilla/5.0 (Windows NT 10.0; Win64; x64; rv:130.0) Gecko/20100101 Firefox/130.0" version="24.7.16">
  <diagram name="第 1 页" id="mAJBpJdFtLfCEdcNNfTV">
    <mxGraphModel dx="2189" dy="1185" grid="1" gridSize="10" guides="1" tooltips="1" connect="1" arrows="1" fold="1" page="1" pageScale="1" pageWidth="827" pageHeight="1169" math="0" shadow="0">
      <root>
        <mxCell id="0" />
        <mxCell id="1" parent="0" />
        <mxCell id="rJZujm7mE-K0gyIYFuhz-1" value="&lt;div style=&quot;font-size: 26px;&quot;&gt;&lt;font style=&quot;font-size: 26px;&quot;&gt;&lt;b&gt;&lt;font style=&quot;font-size: 26px;&quot;&gt;deployment&lt;/font&gt;&lt;/b&gt;&lt;/font&gt;&lt;/div&gt;&lt;font style=&quot;font-size: 17px;&quot; color=&quot;#ff0000&quot;&gt;selector: env=dev&lt;/font&gt;" style="rounded=0;whiteSpace=wrap;html=1;glass=0;fillColor=#dae8fc;strokeColor=#6c8ebf;" vertex="1" parent="1">
          <mxGeometry x="150" y="300" width="210" height="90" as="geometry" />
        </mxCell>
        <mxCell id="rJZujm7mE-K0gyIYFuhz-2" value="&lt;div style=&quot;font-size: 23px;&quot;&gt;&lt;b&gt;Label Selector&lt;br&gt;&lt;/b&gt;&lt;/div&gt;" style="rounded=0;whiteSpace=wrap;html=1;fillColor=#f8cecc;strokeColor=#b85450;" vertex="1" parent="1">
          <mxGeometry x="510" y="430" width="184" height="80" as="geometry" />
        </mxCell>
        <mxCell id="rJZujm7mE-K0gyIYFuhz-6" value="&lt;div style=&quot;font-size: 23px;&quot;&gt;&lt;b&gt;&lt;i&gt;&lt;font style=&quot;font-size: 26px;&quot;&gt;Service&lt;/font&gt;&lt;/i&gt;&lt;/b&gt;&lt;/div&gt;&lt;div style=&quot;font-size: 17px;&quot;&gt;&lt;font color=&quot;#ff0000&quot; style=&quot;font-size: 17px;&quot;&gt;&lt;font style=&quot;font-size: 17px;&quot;&gt;selector: env=dev&lt;/font&gt;&lt;b&gt;&lt;i&gt;&lt;font style=&quot;font-size: 17px;&quot;&gt;&lt;br&gt;&lt;/font&gt;&lt;/i&gt;&lt;/b&gt;&lt;/font&gt;&lt;/div&gt;" style="whiteSpace=wrap;html=1;shape=mxgraph.basic.octagon2;align=center;verticalAlign=middle;dx=15;fillColor=#d5e8d4;strokeColor=#82b366;" vertex="1" parent="1">
          <mxGeometry x="180" y="530" width="140" height="130" as="geometry" />
        </mxCell>
        <mxCell id="rJZujm7mE-K0gyIYFuhz-7" value="" style="endArrow=classic;html=1;rounded=0;strokeWidth=2;entryX=0;entryY=0.5;entryDx=0;entryDy=0;entryPerimeter=0;" edge="1" parent="1" target="rJZujm7mE-K0gyIYFuhz-6">
          <mxGeometry width="50" height="50" relative="1" as="geometry">
            <mxPoint x="70" y="610" as="sourcePoint" />
            <mxPoint x="180" y="570" as="targetPoint" />
          </mxGeometry>
        </mxCell>
        <mxCell id="rJZujm7mE-K0gyIYFuhz-9" value="&lt;div&gt;&lt;b&gt;&lt;font style=&quot;font-size: 26px;&quot;&gt;Pod&lt;/font&gt;&lt;/b&gt;&lt;/div&gt;&lt;div&gt;&lt;font color=&quot;#ff0000&quot; style=&quot;font-size: 14px;&quot;&gt;label: env=dev&lt;/font&gt;&lt;/div&gt;" style="ellipse;whiteSpace=wrap;html=1;aspect=fixed;fillColor=#fff2cc;strokeColor=#000000;" vertex="1" parent="1">
          <mxGeometry x="860" y="280" width="120" height="120" as="geometry" />
        </mxCell>
        <mxCell id="rJZujm7mE-K0gyIYFuhz-11" value="&lt;div&gt;&lt;b&gt;&lt;font style=&quot;font-size: 26px;&quot;&gt;Pod&lt;/font&gt;&lt;/b&gt;&lt;/div&gt;&lt;div&gt;&lt;font color=&quot;#ff0000&quot; style=&quot;font-size: 14px;&quot;&gt;label: env=test&lt;/font&gt;&lt;/div&gt;" style="ellipse;whiteSpace=wrap;html=1;aspect=fixed;fillColor=#fff2cc;strokeColor=#000000;" vertex="1" parent="1">
          <mxGeometry x="860" y="430" width="120" height="120" as="geometry" />
        </mxCell>
        <mxCell id="rJZujm7mE-K0gyIYFuhz-12" value="&lt;div&gt;&lt;b&gt;&lt;font style=&quot;font-size: 26px;&quot;&gt;Pod&lt;/font&gt;&lt;/b&gt;&lt;/div&gt;&lt;div&gt;&lt;font color=&quot;#ff0000&quot; style=&quot;font-size: 14px;&quot;&gt;label: env=pro&lt;/font&gt;&lt;/div&gt;" style="ellipse;whiteSpace=wrap;html=1;aspect=fixed;fillColor=#fff2cc;strokeColor=#000000;" vertex="1" parent="1">
          <mxGeometry x="860" y="570" width="120" height="120" as="geometry" />
        </mxCell>
        <mxCell id="rJZujm7mE-K0gyIYFuhz-17" value="" style="endArrow=none;html=1;rounded=0;entryX=0;entryY=0.5;entryDx=0;entryDy=0;edgeStyle=orthogonalEdgeStyle;curved=1;strokeWidth=2;" edge="1" parent="1" target="rJZujm7mE-K0gyIYFuhz-9">
          <mxGeometry width="50" height="50" relative="1" as="geometry">
            <mxPoint x="694" y="480" as="sourcePoint" />
            <mxPoint x="744" y="430" as="targetPoint" />
          </mxGeometry>
        </mxCell>
        <mxCell id="rJZujm7mE-K0gyIYFuhz-18" value="" style="endArrow=none;html=1;rounded=0;entryX=0;entryY=0.5;entryDx=0;entryDy=0;strokeWidth=2;" edge="1" parent="1" target="rJZujm7mE-K0gyIYFuhz-11">
          <mxGeometry width="50" height="50" relative="1" as="geometry">
            <mxPoint x="694" y="480" as="sourcePoint" />
            <mxPoint x="744" y="430" as="targetPoint" />
          </mxGeometry>
        </mxCell>
        <mxCell id="rJZujm7mE-K0gyIYFuhz-19" value="" style="endArrow=none;html=1;rounded=0;entryX=0;entryY=0.5;entryDx=0;entryDy=0;edgeStyle=orthogonalEdgeStyle;curved=1;strokeWidth=2;" edge="1" parent="1" target="rJZujm7mE-K0gyIYFuhz-12">
          <mxGeometry width="50" height="50" relative="1" as="geometry">
            <mxPoint x="694" y="480" as="sourcePoint" />
            <mxPoint x="744" y="430" as="targetPoint" />
          </mxGeometry>
        </mxCell>
        <mxCell id="rJZujm7mE-K0gyIYFuhz-20" value="" style="curved=1;endArrow=none;html=1;rounded=0;exitX=1;exitY=0.5;exitDx=0;exitDy=0;exitPerimeter=0;entryX=0;entryY=0.5;entryDx=0;entryDy=0;edgeStyle=orthogonalEdgeStyle;startArrow=none;startFill=0;strokeWidth=2;endFill=0;" edge="1" parent="1" source="rJZujm7mE-K0gyIYFuhz-6" target="rJZujm7mE-K0gyIYFuhz-2">
          <mxGeometry width="50" height="50" relative="1" as="geometry">
            <mxPoint x="390" y="540" as="sourcePoint" />
            <mxPoint x="440" y="490" as="targetPoint" />
          </mxGeometry>
        </mxCell>
        <mxCell id="rJZujm7mE-K0gyIYFuhz-21" value="" style="endArrow=none;html=1;rounded=0;exitX=1;exitY=0.5;exitDx=0;exitDy=0;entryX=0;entryY=0.5;entryDx=0;entryDy=0;edgeStyle=orthogonalEdgeStyle;curved=1;strokeWidth=2;" edge="1" parent="1" source="rJZujm7mE-K0gyIYFuhz-1" target="rJZujm7mE-K0gyIYFuhz-2">
          <mxGeometry width="50" height="50" relative="1" as="geometry">
            <mxPoint x="390" y="540" as="sourcePoint" />
            <mxPoint x="440" y="490" as="targetPoint" />
          </mxGeometry>
        </mxCell>
      </root>
    </mxGraphModel>
  </diagram>
</mxfile>
